<?xml version="1.0" encoding="iso-8859-1"?>
<!-- Generator: Adobe Illustrator 16.0.0, SVG Export Plug-In . SVG Version: 6.00 Build 0)  -->
<!DOCTYPE svg PUBLIC "-//W3C//DTD SVG 1.1//EN" "http://www.w3.org/Graphics/SVG/1.1/DTD/svg11.dtd">
<svg version="1.1" id="Capa_1" xmlns="http://www.w3.org/2000/svg" xmlns:xlink="http://www.w3.org/1999/xlink" x="0px" y="0px"
	 width="591.201px" height="591.201px" viewBox="0 0 591.201 591.201" style="enable-background:new 0 0 591.201 591.201;"
	 xml:space="preserve">
<g>
	<g>
		<g>
			<path d="M532.562,0.5H58.64C26.582,0.5,0.5,26.582,0.5,58.64v473.921c0,32.059,26.082,58.141,58.14,58.141h473.922
				c32.058,0,58.14-26.082,58.14-58.141V58.64C590.701,26.582,564.619,0.5,532.562,0.5z M547.861,532.561
				c0,8.449-6.85,15.299-15.3,15.299H58.64c-8.45,0-15.3-6.85-15.3-15.299V58.64c0-8.45,6.85-15.3,15.3-15.3h473.922
				c8.45,0,15.3,6.85,15.3,15.3V532.561z"/>
			<path d="M532.562,591.201H58.64C26.306,591.201,0,564.896,0,532.561V58.64C0,26.306,26.306,0,58.64,0h473.922
				c32.334,0,58.64,26.306,58.64,58.64v473.921C591.201,564.896,564.896,591.201,532.562,591.201z M58.64,1
				C26.857,1,1,26.857,1,58.64v473.921c0,31.783,25.857,57.641,57.64,57.641h473.922c31.782,0,57.64-25.857,57.64-57.641V58.64
				c0-31.783-25.857-57.64-57.64-57.64H58.64z M532.562,548.359H58.64c-8.712,0-15.8-7.087-15.8-15.799V58.64
				c0-8.712,7.088-15.8,15.8-15.8h473.922c8.712,0,15.8,7.088,15.8,15.8v473.921C548.361,541.272,541.273,548.359,532.562,548.359z
				 M58.64,43.84c-8.161,0-14.8,6.639-14.8,14.8v473.921c0,8.16,6.639,14.799,14.8,14.799h473.922c8.161,0,14.8-6.639,14.8-14.799
				V58.64c0-8.161-6.639-14.8-14.8-14.8H58.64z"/>
		</g>
	</g>
</g>
<g>
</g>
<g>
</g>
<g>
</g>
<g>
</g>
<g>
</g>
<g>
</g>
<g>
</g>
<g>
</g>
<g>
</g>
<g>
</g>
<g>
</g>
<g>
</g>
<g>
</g>
<g>
</g>
<g>
</g>
</svg>
